<?xml version="1.0" encoding="UTF-8" standalone="no"?>
<!-- Created with Inkscape (http://www.inkscape.org/) -->

<svg
   xmlns:svg="http://www.w3.org/2000/svg"
   xmlns="http://www.w3.org/2000/svg"
   version="1.1"
   width="465"
   height="150"
   viewBox="0 0 465.00001 150"
   id="Layer_1"
   xml:space="preserve"><defs
   id="defs21">
	

	
</defs>
<g
   transform="translate(4,4.9069979)"
   id="g5">
		<path
   d="m 376.526,2.236 c -44,2 -94,12 -173,68 -81.902,58.057 -196,49.367 -196,3 0,-50.408 115.872,-48.564 192,0 96.477,61.545 178,86 200,46 21.552,-39.186 -35,-57 -61,-40"
   id="path7"
   style="fill:none" />
		<path
   d="m 374.532,0.12 c -37.363,1.743 -73.021,10.798 -106.871,26.732 -25.138,11.833 -48.711,26.79 -71.367,42.8 -20.687,14.619 -44.041,25.253 -68.422,31.991 -20.117,5.56 -41.347,8.318 -62.198,6.549 C 51.123,106.958 35.069,103.147 24.034,92.987 14.974,84.645 12.296,71.306 18.079,60.259 24.642,47.721 39.72,42.408 52.762,40.034 c 19.256,-3.506 39.396,-1.493 58.469,2.136 23.301,4.433 45.975,12.507 66.958,23.532 12.556,6.598 24.283,14.698 36.461,21.949 12.962,7.718 26.189,14.992 39.674,21.758 22.028,11.053 45.069,20.841 69.052,26.761 29.119,7.188 73.838,11.186 86.621,-23.5 5.935,-16.101 -3.947,-29.86 -18.384,-36.414 -15.873,-7.204 -36.87,-7.979 -53.07,-1.438 -2.271,0.917 -4.423,1.999 -6.492,3.312 -2.673,1.694 1.224,2.751 2.69,3.003 2.892,0.495 7.623,0.885 10.261,-0.788 12.607,-7.991 27.994,-6.283 40.208,1.71 14.778,9.671 13.893,28.145 4.105,41.164 -7.981,10.619 -21.262,13.937 -33.736,13.258 -21.238,-1.154 -42.206,-8.848 -61.638,-16.973 C 266.842,108.172 241.021,93.823 216.042,78.434 204.889,71.562 193.967,64.631 182.127,58.967 171.377,53.825 160.191,49.566 148.84,45.956 126.98,39.004 104.06,34.883 81.131,34.066 62.443,33.4 43.119,34.85 25.557,41.684 13.479,46.385 2.579,55.245 0.368,68.617 c -2.124,12.845 5.204,23.409 15.385,30.346 13.802,9.402 31.93,12.391 48.223,13.648 22.211,1.714 44.614,-0.79 66.263,-5.776 23.964,-5.52 47.114,-15.023 68.111,-27.802 12.536,-7.629 24.236,-16.594 36.61,-24.492 11.438,-7.301 23.19,-14.107 35.246,-20.334 33.464,-17.282 68.862,-27.822 106.502,-29.768 0.604,-0.03 1.208,-0.06 1.812,-0.087 0.615,-0.028 6.976,-0.851 5.238,-2.7 -1.966,-2.091 -6.718,-1.649 -9.226,-1.532 l 0,0 z"
   id="path9"
   style="fill:#9c3100" />
	</g>
<g
   transform="translate(4,4.9069979)"
   id="g13">
		<path
   d="m 79.323,2.236 c 44,2 94,12 173,68 81.902,58.057 196,49.367 196,3 0,-50.408 -115.872,-48.564 -192,0 -96.477,61.545 -178,86 -200,46 -21.552,-39.186 35,-57 61,-40"
   id="path15"
   style="fill:none" />
		<path
   d="m 77.33,4.353 c 37.352,1.743 72.265,11.764 105.675,28.512 11.962,5.996 23.555,12.711 34.902,19.794 12.593,7.859 24.472,16.757 36.972,24.741 20.806,13.289 44.075,22.8 67.992,28.777 21.764,5.439 44.275,7.81 66.684,6.587 16.714,-0.912 34.708,-4.062 49.188,-12.927 10.653,-6.521 18.049,-16.829 16.929,-29.715 -1.175,-13.509 -12.051,-22.646 -23.719,-27.753 -16.941,-7.415 -36.495,-8.797 -54.755,-8.384 -22.855,0.517 -45.594,4.567 -67.466,11.128 -23.867,7.16 -45.544,18.068 -66.59,31.248 -25.109,15.725 -51.148,30.155 -78.361,41.92 -19.712,8.521 -40.855,16.235 -62.413,18.049 -12.836,1.08 -26.013,-1.649 -34.877,-11.924 -10.825,-12.548 -11.607,-30.539 1.707,-41.281 11.174,-9.015 27.65,-10.698 40.116,-3.723 0.52,0.3 1.031,0.613 1.533,0.941 2.638,1.673 7.37,1.283 10.261,0.788 1.467,-0.252 5.364,-1.309 2.691,-3.003 C 108.943,68.71 88.195,68.897 71.781,73.501 57.334,77.555 43.16,88.163 44.1,104.605 c 0.86,15.027 12.268,27.31 25.841,32.28 16.593,6.078 35.629,4.654 52.664,1.45 52.854,-9.944 99.785,-39.651 145.054,-66.998 20.495,-12.381 43.093,-21.105 66.295,-26.846 19.884,-4.919 40.799,-7.456 61.255,-5.549 14.051,1.311 29.777,5.393 39.309,16.535 7.979,9.328 8.344,23.407 1.148,33.231 -8.45,11.537 -23.946,16.212 -37.379,18.467 -19.678,3.303 -40.104,1.216 -59.49,-2.873 C 314.679,99.214 291.477,89.61 270.452,76.816 257.919,69.188 246.214,60.22 233.841,52.323 222.404,45.022 210.652,38.216 198.596,31.989 164.167,14.211 127.3,3.172 88.608,0.526 86.179,0.361 83.749,0.233 81.317,0.12 78.81,0.003 74.058,-0.44 72.091,1.652 c -1.737,1.85 4.623,2.672 5.239,2.701 l 0,0 z"
   id="path17"
   style="fill:#9c3100" />
	</g>
</svg>